<svg xmlns="http://www.w3.org/2000/svg" width="77" height="77" viewBox="0 0 77 77" fill="none"><g clip-path="url(#clip0_2064_6187)"><path d="M76.2944 36.24C74.9605 36.9898 73.9781 38.8253 73.2698 39.8905C73.9471 39.8594 74.9708 39.8905 75.9842 39.7663C74.6877 48.9422 70.4113 57.4374 63.8133 63.9441C59.8888 67.9078 55.2298 71.069 50.0967 73.2513C40.3455 77.3878 29.6018 77.5687 20.4866 73.6494C16.6108 72.0031 13.0893 69.6242 10.1151 66.6432C4.90271 61.3965 1.56463 54.5781 0.617261 47.243C2.11147 46.6174 3.20239 44.5647 3.94691 43.4272C2.73557 43.4282 1.52593 43.518 0.327726 43.696C-0.0910653 32.9412 4.1227 21.6175 12.8087 12.936C25.2173 0.526581 43.0237 -2.76193 56.8645 3.55139C56.2906 4.30113 55.8305 5.10257 55.4272 5.69719C56.544 5.63514 58.5293 5.72822 59.9822 5.18013C61.1527 5.86705 62.2755 6.63232 63.3429 7.47072C63.0895 7.86885 62.8258 8.23597 62.6449 8.5462C63.1619 8.5462 63.8444 8.5462 64.5941 8.48415C65.2507 9.03741 65.897 9.63204 66.5122 10.2474C73.4818 17.2225 76.7132 26.6227 76.2944 36.24Z" fill="#E8D3C9"></path><path d="M16.7381 20.4075C15.2048 23.6548 14.6466 27.2772 15.1312 30.8355C15.6157 34.3937 17.1223 37.7349 19.468 40.4539C22.3065 43.6338 26.1531 45.6969 29.9171 47.6928C31.2717 48.4115 32.678 49.1509 34.2136 49.2853C36.2145 49.4611 38.1585 48.5873 39.9009 47.5946C44.399 45.0454 48.4369 41.4932 50.8825 36.9379C53.328 32.3826 54.026 26.7622 52.0716 21.9742C51.0634 19.5854 49.5169 17.462 47.5529 15.7694C43.967 12.6972 39.3901 11.0276 34.6686 11.0694C32.3629 11.1186 30.0855 11.5864 27.9472 12.4499C25.8791 13.2151 23.8524 13.3238 21.9342 14.5181C19.6974 15.9704 17.9004 18.0071 16.7381 20.4075Z" fill="#D6AF99"></path><path d="M50.1068 73.2353C48.4645 73.9311 46.7789 74.5201 45.0607 74.9985C44.1093 75.2674 43.1477 75.5156 42.1705 75.6862C42.0567 75.6862 41.9585 75.7275 41.8447 75.7586C41.8036 75.7536 41.7619 75.7536 41.7207 75.7586C38.3609 76.4025 34.9295 76.5886 31.5198 76.3119C30.4398 76.2312 29.3647 76.0949 28.2987 75.9034C28.1024 75.8825 27.9075 75.8514 27.7145 75.8103H27.6524L27.2026 75.7173C26.2874 75.5312 25.3878 75.3088 24.4934 75.0502C23.1323 74.6597 21.7974 74.1831 20.4967 73.6232C20.2347 72.5852 20.1011 71.519 20.0986 70.4484C19.8919 65.8517 19.6954 61.2706 19.5041 56.6739C19.3689 55.3597 19.4616 54.0321 19.7781 52.7494C20.0061 52.0192 20.3783 51.3421 20.8727 50.7583C21.367 50.1745 21.9735 49.6958 22.6562 49.3507C23.3388 49.0054 24.0837 48.8007 24.8469 48.7486C25.6101 48.6965 26.3759 48.7981 27.0992 49.0472C33.1277 48.0648 39.3527 47.1186 45.2882 48.5302C46.6532 48.8559 48.0853 49.3781 48.8764 50.5415C49.5226 51.5033 49.6053 52.7132 49.6777 53.8714C49.9535 58.6387 50.2292 63.4094 50.505 68.1836C50.6084 69.9159 50.6911 71.6687 50.1068 73.2353Z" fill="#F4816B"></path><path d="M48.3747 31.4414C48.6539 28.8563 46.0584 26.4832 43.463 26.7883C42.6191 26.9242 41.8013 27.1893 41.038 27.5741C40.3293 27.8584 39.5814 28.0327 38.82 28.0912C37.6257 28.3393 36.483 28.8563 35.2887 28.9287C34.2547 29.0166 32.9052 29.1407 31.8971 28.7995L29.0896 27.8585L28.4382 27.6206C27.6925 27.2925 26.9067 27.0647 26.1012 26.9433C23.1644 26.6486 20.4656 29.7456 21.391 32.6307C22.3166 35.5156 25.8737 36.043 28.4071 35.3502C29.4721 35.0606 30.4752 34.616 31.5609 34.3627C33.4148 34.0015 35.3223 34.0156 37.1707 34.404C39.0268 34.7246 40.8519 35.2106 42.7184 35.4381C45.1536 35.7587 47.7904 34.3213 48.3126 31.7827C48.3333 31.6793 48.3747 31.5656 48.3747 31.4414Z" fill="#E8D3C9"></path><path d="M31.5194 60.0455V76.3433C30.4394 76.2626 29.3643 76.1262 28.2983 75.9348V60.0455C28.2992 59.3844 28.4434 58.7316 28.721 58.1316C28.9987 57.5318 29.4031 56.9992 29.9063 56.5708C30.4111 56.9983 30.8168 57.5305 31.0953 58.1306C31.374 58.7305 31.5187 59.384 31.5194 60.0455Z" fill="#D87768"></path><path d="M45.0607 66.524V75.0084C44.1093 75.2773 43.1476 75.5254 42.1704 75.696C42.0567 75.696 41.9584 75.7374 41.8447 75.7684V66.524C41.8458 64.9635 42.4177 63.4574 43.4527 62.2896C44.4897 63.4561 45.062 64.9631 45.0607 66.524Z" fill="#F59085"></path><path d="M30.3255 25.1489C30.0537 25.2984 29.8215 25.5106 29.648 25.7677C29.4745 26.0249 29.3647 26.3196 29.3276 26.6276C29.3355 26.8407 29.394 27.049 29.4983 27.2351C29.6026 27.4211 29.7497 27.5798 29.9274 27.6978C30.2861 27.9314 30.7096 28.0454 31.1372 28.0235C31.8576 27.973 32.546 27.7063 33.1122 27.2583C33.678 26.8134 34.1976 26.3128 34.6634 25.7641C34.7955 25.6521 34.9027 25.5138 34.9784 25.358C35.0541 25.2022 35.0965 25.0324 35.1028 24.8593C34.9994 24.0011 33.7068 24.1614 33.0967 24.1561C32.0963 24.2116 31.1335 24.5564 30.3255 25.1489Z" fill="#E8D3C9"></path><path d="M46.2084 24.5904C46.2112 24.5785 46.2112 24.5661 46.2084 24.5542C46.1101 24.3836 46.017 24.213 45.9343 24.0372C45.893 23.9596 45.8568 23.8769 45.8103 23.7993C45.2364 22.7653 45.0192 21.7313 43.6646 21.5865H43.5663C43.0782 21.5831 42.6075 21.7674 42.2514 22.1012C41.8953 22.4352 41.6812 22.8932 41.6533 23.3806C42.8787 23.6074 44.0878 23.9148 45.2725 24.3009L45.862 24.5025L46.0687 24.5749L46.167 24.6111C46.171 24.6127 46.1754 24.6134 46.1798 24.6132C46.1842 24.613 46.1884 24.6119 46.1923 24.61C46.1962 24.608 46.1996 24.6053 46.2024 24.6019C46.2052 24.5985 46.2073 24.5946 46.2084 24.5904Z" fill="#53484A"></path><path d="M54.8534 36.4572C54.8534 36.4572 54.8534 28.572 54.0985 22.2845C54.1468 22.2653 54.1971 22.2514 54.2484 22.2432C54.7145 22.1055 55.1247 21.8233 55.4198 21.4371C55.7148 21.051 55.8794 20.581 55.8898 20.0951C55.9001 19.6093 55.7557 19.1327 55.4774 18.7343C55.199 18.336 54.8013 18.0365 54.3415 17.8792H54.2794C53.3061 17.5466 52.4652 16.9105 51.8804 16.0642C49.2643 12.207 45.3505 10.2422 41.9277 9.23387C39.578 8.53914 37.1396 8.19077 34.6894 8.19975C32.0719 8.20389 29.4704 8.60842 26.9753 9.39933C23.6767 10.4334 19.9954 12.4034 17.493 16.0746C16.9086 16.9187 16.0672 17.5517 15.094 17.8792C14.6346 18.0333 14.2365 18.3299 13.9575 18.7262C13.6785 19.1224 13.5332 19.5973 13.543 20.0818C13.534 20.5811 13.6933 21.069 13.9953 21.4667C14.2973 21.8643 14.7244 22.1489 15.2078 22.2741L15.3009 22.3051C15.0527 24.3062 14.8873 26.4417 14.7838 28.4789C14.5511 32.8067 14.5511 36.4778 14.5511 36.4778C14.5511 36.4778 5.69967 48.5357 4.94482 59.363C4.55188 64.7663 6.17534 69.8542 11.873 72.972C21.7275 78.034 26.2101 71.3692 26.2101 71.3692C26.2101 71.3692 29.121 67.9048 22.4875 64.3784V54.8128C22.4902 54.4663 22.6299 54.1349 22.8758 53.8908C23.1218 53.6468 23.4542 53.5098 23.8007 53.5098H26.3187V52.2792C26.3187 52.005 26.4277 51.742 26.6216 51.548C26.8155 51.354 27.0785 51.2451 27.3527 51.2451H30.8169C31.0911 51.2451 31.354 51.354 31.548 51.548C31.7419 51.742 31.8508 52.005 31.8508 52.2792V53.5098H37.5175V52.2792C37.5175 52.005 37.6264 51.742 37.8203 51.548C38.0143 51.354 38.2773 51.2451 38.5516 51.2451H42.0156C42.2899 51.2451 42.5529 51.354 42.7468 51.548C42.9407 51.742 43.0497 52.005 43.0497 52.2792V53.5098H45.5727C45.9174 53.5112 46.2475 53.6491 46.4907 53.8933C46.7339 54.1375 46.8705 54.4681 46.8705 54.8128V64.3681C40.2474 67.8945 43.1634 71.3588 43.1634 71.3588C43.1634 71.3588 47.6305 78.0237 57.4954 72.9616C74.6348 63.577 54.8534 36.4572 54.8534 36.4572ZM51.9529 29.5544C51.76 32.4769 50.6181 35.2566 48.7007 37.4706C45.1436 41.6536 39.5287 44.2389 34.6996 46.7002C29.8603 44.2389 24.2299 41.6536 20.6625 37.4706C18.7549 35.2515 17.6176 32.4741 17.4207 29.5544C17.1518 24.9319 18.6201 17.2017 23.7697 15.5162C28.8004 13.8667 31.9905 18.1946 33.1279 20.1698C33.2881 20.4389 33.515 20.6622 33.7868 20.818C34.0585 20.9738 34.3658 21.0569 34.679 21.0591C34.9929 21.0604 35.3017 20.9789 35.574 20.8227C35.8464 20.6667 36.0726 20.4414 36.23 20.1698C37.3934 18.1946 40.5731 13.8616 45.6089 15.5162C50.7534 17.2017 52.2113 24.9319 51.9529 29.5544Z" fill="#87574C"></path><path d="M45.8312 29.3316C45.7159 29.2537 45.5822 29.2073 45.4434 29.1971H45.3813C44.9832 29.2488 45.1331 29.7142 45.2883 29.9365C45.8478 30.7184 46.1431 31.6585 46.131 32.6198C46.1269 33.0903 45.9973 33.5511 45.7555 33.9547C45.5138 34.3582 45.1686 34.6899 44.7557 34.9155C43.2046 35.7996 41.8966 34.6208 40.48 34.0883C38.8641 33.5071 37.1658 33.1877 35.4493 33.1421V30.9602C37.5025 30.5019 39.3631 29.4181 40.7747 27.8581C40.9594 27.6535 41.0981 27.4119 41.1818 27.1492C41.2655 26.8867 41.292 26.6093 41.2597 26.3356C41.2273 26.0619 41.1369 25.7983 40.9944 25.5624C40.8519 25.3265 40.6607 25.1238 40.4334 24.9678C38.7402 23.7699 36.7147 23.1317 34.6405 23.1428C32.5665 23.154 30.5477 23.8139 28.8675 25.0299C28.6586 25.1826 28.4835 25.377 28.3537 25.6009C28.2238 25.8247 28.142 26.0731 28.1134 26.3304C28.0847 26.5876 28.1098 26.8479 28.1871 27.0948C28.2644 27.3419 28.3923 27.5701 28.5625 27.765C29.9735 29.3806 31.8622 30.5051 33.9551 30.9757V33.1576C32.4989 33.1962 31.0541 33.4274 29.6586 33.8452C29.0263 34.025 28.4104 34.2585 27.8179 34.5432C26.7322 35.0603 25.6517 35.448 24.5245 34.7914C24.1314 34.5681 23.8052 34.2438 23.5797 33.8519C23.3543 33.4601 23.2378 33.015 23.2423 32.563C23.2365 31.6249 23.5279 30.7091 24.0747 29.9469C24.1781 29.8021 24.2608 29.5849 24.1264 29.4298C23.992 29.2747 23.7283 29.4298 23.5629 29.4918C23.1831 29.692 22.8459 29.9643 22.5701 30.2933C22.0146 30.944 21.7151 31.7747 21.7274 32.6302C21.736 33.3356 21.929 34.0265 22.2873 34.6342C22.6456 35.2418 23.1566 35.7453 23.7696 36.0942C24.409 36.4679 25.1344 36.6692 25.8749 36.6782C26.6153 36.6873 27.3455 36.5039 27.9938 36.146C30.07 35.0806 32.3826 34.5594 34.7151 34.6311C34.7338 34.6359 34.7533 34.6359 34.772 34.6311C37.1442 34.5664 39.4918 35.1244 41.5813 36.2494C42.1847 36.5985 42.8694 36.7822 43.5666 36.7822C44.2637 36.7822 44.9485 36.5985 45.552 36.2494C46.1951 35.8793 46.7288 35.3458 47.0993 34.703C47.4698 34.0601 47.6637 33.3308 47.6614 32.5888C47.6958 31.9284 47.5421 31.2717 47.218 30.6951C46.8941 30.1186 46.4131 29.6457 45.8312 29.3316ZM32.1869 26.581C31.6698 26.9998 31.2096 27.7805 30.4548 27.2997C30.3319 27.2145 30.2176 27.1176 30.1136 27.0101C30.0339 26.9296 29.9739 26.8317 29.9384 26.7241C29.9028 26.6165 29.8926 26.5021 29.9087 26.39C29.9247 26.2778 29.9665 26.1708 30.0308 26.0776C30.0949 25.9842 30.1799 25.907 30.279 25.852C31.4595 25.1348 32.8226 24.7755 34.2032 24.8179L32.1869 26.581Z" fill="#53484A"></path><path d="M37.9927 36.4725C37.6073 36.9852 37.1081 37.4012 36.5342 37.6879C35.9604 37.9744 35.3277 38.1235 34.6864 38.1235C34.045 38.1235 33.4123 37.9744 32.8386 37.6879C32.2647 37.4012 31.7653 36.9852 31.38 36.4725C31.2607 36.3127 31.0828 36.2069 30.8855 36.1783C30.6882 36.1498 30.4876 36.2007 30.3278 36.3199C30.1681 36.4392 30.0623 36.6172 30.0337 36.8144C30.005 37.0118 30.056 37.2124 30.1753 37.3722C30.7015 38.0702 31.3826 38.6365 32.165 39.0265C32.9474 39.4165 33.8096 39.6195 34.6838 39.6195C35.558 39.6195 36.4202 39.4165 37.2026 39.0265C37.9849 38.6365 38.666 38.0702 39.1923 37.3722C39.2513 37.2933 39.2943 37.2037 39.3187 37.1084C39.3432 37.013 39.3486 36.9138 39.3347 36.8162C39.3207 36.7188 39.2877 36.6251 39.2375 36.5404C39.1874 36.4557 39.1211 36.3816 39.0423 36.3226C38.9636 36.2634 38.8739 36.2205 38.7786 36.1961C38.6831 36.1716 38.5839 36.1662 38.4865 36.1802C38.389 36.1941 38.2953 36.227 38.2105 36.2772C38.1258 36.3273 38.0518 36.3937 37.9927 36.4725Z" fill="#53484A"></path><path d="M42.7185 33.308C43.124 33.308 43.4527 32.9793 43.4527 32.5739C43.4527 32.1684 43.124 31.8397 42.7185 31.8397C42.313 31.8397 41.9844 32.1684 41.9844 32.5739C41.9844 32.9793 42.313 33.308 42.7185 33.308Z" fill="#53484A"></path><path d="M40.387 31.9327C40.7925 31.9327 41.1212 31.604 41.1212 31.1985C41.1212 30.7931 40.7925 30.4644 40.387 30.4644C39.9816 30.4644 39.6528 30.7931 39.6528 31.1985C39.6528 31.604 39.9816 31.9327 40.387 31.9327Z" fill="#53484A"></path><path d="M26.6546 33.308C27.06 33.308 27.3887 32.9793 27.3887 32.5739C27.3887 32.1684 27.06 31.8397 26.6546 31.8397C26.249 31.8397 25.9204 32.1684 25.9204 32.5739C25.9204 32.9793 26.249 33.308 26.6546 33.308Z" fill="#53484A"></path><path d="M28.9861 31.9327C29.3916 31.9327 29.7203 31.604 29.7203 31.1985C29.7203 30.7931 29.3916 30.4644 28.9861 30.4644C28.5807 30.4644 28.252 30.7931 28.252 31.1985C28.252 31.604 28.5807 31.9327 28.9861 31.9327Z" fill="#53484A"></path><path d="M23.1645 24.5903C23.1613 24.5785 23.1613 24.566 23.1645 24.5542C23.2627 24.3835 23.3557 24.2129 23.4437 24.0371C23.485 23.9596 23.5211 23.8768 23.5625 23.7993C24.1365 22.7652 24.3536 21.7312 25.7134 21.5864H25.8064C26.2936 21.5857 26.7625 21.7719 27.1166 22.1066C27.4705 22.4414 27.6826 22.8991 27.7091 23.3857C26.4834 23.6112 25.2744 23.9187 24.0899 24.306L23.4953 24.5076L23.2885 24.58L23.1955 24.6161C23.1955 24.6161 23.1645 24.611 23.1645 24.5903Z" fill="#53484A"></path><path d="M51.0632 57.9459C51.0626 58.6333 50.9509 59.316 50.7323 59.9676C50.5282 60.5877 50.2413 61.1773 49.8792 61.7204C49.7238 61.985 49.5511 62.2389 49.3621 62.4805C49.1511 62.6976 48.9284 62.9029 48.6952 63.0959L48.6072 63.1786C48.3488 63.4009 48.0592 63.6078 47.7852 63.8145L47.6921 63.887L47.5784 63.9542C47.4957 64.0059 47.4285 64.0576 47.3457 64.0989C47.263 64.1403 47.1906 64.2024 47.1182 64.2437L46.9941 64.3161L46.8804 64.3781C46.8701 64.237 46.8701 64.0953 46.8804 63.9542V60.5623C46.8804 59.2696 46.8804 57.9769 46.8804 56.674V54.8125C46.8804 54.4679 46.7439 54.1371 46.5006 53.8929C46.2574 53.6487 45.9273 53.5109 45.5827 53.5095H43.0544V52.2789C43.0544 52.0046 42.9455 51.7416 42.7515 51.5477C42.5576 51.3537 42.2946 51.2448 42.0203 51.2448H38.5511C38.2769 51.2448 38.0139 51.3537 37.8199 51.5477C37.626 51.7416 37.5171 52.0046 37.5171 52.2789V53.5095H31.8556V52.2789C31.8556 52.0046 31.7466 51.7416 31.5527 51.5477C31.3588 51.3537 31.0958 51.2448 30.8216 51.2448H27.3574C27.0832 51.2448 26.8202 51.3537 26.6263 51.5477C26.4324 51.7416 26.3234 52.0046 26.3234 52.2789V53.5095H23.8003C23.6285 53.5088 23.4583 53.542 23.2993 53.6071C23.1404 53.6722 22.9958 53.768 22.8738 53.889C22.7519 54.01 22.655 54.1539 22.5887 54.3122C22.5223 54.4707 22.4878 54.6407 22.4871 54.8125V63.8145C22.5017 63.9866 22.5017 64.1596 22.4871 64.3316C21.6747 63.9007 20.9308 63.3519 20.2794 62.7029C19.9847 62.4255 19.7275 62.1109 19.5142 61.767C19.9233 61.2384 20.3031 60.6878 20.6517 60.1176C20.176 60.1486 19.4418 60.1176 18.7334 60.221C18.4521 59.49 18.3066 58.7137 18.3043 57.9304C18.3027 57.685 18.3165 57.4398 18.3457 57.1961C18.808 56.6394 19.2246 56.0463 19.5917 55.4227H18.8059C20.6 51.0897 27.0369 47.8373 34.6889 47.8373C38.4466 47.7795 42.1608 48.646 45.5051 50.3606C45.2363 50.738 44.9881 51.1206 44.8174 51.3947C45.5369 51.3957 46.2555 51.3473 46.9683 51.2499C49.512 53.0545 51.0632 55.3864 51.0632 57.9459Z" fill="#775049"></path><path d="M17.6378 37.3568C11.8316 41.9948 7.01293 52.093 4.94482 59.3629C5.69968 48.5356 14.5202 36.4571 14.5202 36.4571C14.5202 36.4571 14.5202 32.7859 14.7528 28.4581C14.9001 30.4193 15.3755 32.342 16.1591 34.1459C15.7213 34.696 15.3206 35.2746 14.9596 35.878C15.4301 35.847 16.1798 35.878 16.8778 35.7746C17.1363 36.3123 17.3896 36.8449 17.6378 37.3568Z" fill="#775049"></path><path d="M34.6891 8.17386C32.0716 8.17799 29.4702 8.58251 26.9751 9.37336C27.7816 9.75082 28.5261 10.1489 29.2242 10.5573C28.857 11.0381 28.552 11.5914 28.2986 11.9429C29.191 11.9602 30.0825 11.877 30.9562 11.6948C31.3232 11.9637 31.6541 12.2429 31.9903 12.5169C31.8196 12.7754 31.6696 13.0339 31.5352 13.2252C31.8403 13.2252 32.2487 13.2252 32.6882 13.1839C33.0378 13.5375 33.3593 13.9178 33.6499 14.3213C33.7266 14.427 33.8272 14.5131 33.9436 14.5724C34.06 14.6318 34.1888 14.6628 34.3195 14.6628C34.4501 14.6628 34.5788 14.6318 34.6953 14.5724C34.8116 14.5131 34.9123 14.427 34.989 14.3213C36.297 12.4496 38.7012 10.7021 41.9429 9.2286C39.5893 8.52541 37.1456 8.17008 34.6891 8.17386Z" fill="#775049"></path><path d="M61.5381 48.4736C61.2641 47.8272 60.9849 47.1809 60.6901 46.5657C59.9199 44.8852 59.0978 43.3341 58.3222 41.9741C57.9706 41.3485 57.6346 40.7745 57.2882 40.242C55.8871 37.8997 54.8271 36.4571 54.8271 36.4571C54.8271 36.4571 54.8271 32.7859 54.5944 28.4581C54.3669 32.0259 52.9192 34.8283 51.7095 37.3568C52.2919 37.8325 52.8676 38.3495 53.4363 38.908C53.9533 39.425 54.4703 39.9938 54.9512 40.5884C55.1787 40.847 55.3803 41.1054 55.5975 41.3899C55.22 41.881 54.9098 42.4239 54.6565 42.7808C55.1373 42.7497 55.856 42.7808 56.5591 42.6929C57.6 44.1494 58.5497 45.6691 59.4028 47.243C58.8955 47.8203 58.4453 48.4454 58.0585 49.1096C58.8093 49.1117 59.5591 49.0599 60.3024 48.9545C61.9914 52.2881 63.3641 55.7729 64.4024 59.3629C64.1646 55.7022 62.9858 51.8965 61.5381 48.4736Z" fill="#775049"></path></g><defs><clipPath id="clip0_2064_6187"><rect width="77" height="77" fill="white"></rect></clipPath></defs></svg>